<svg width="406" height="1798" viewBox="0 0 406 1798" fill="none" xmlns="http://www.w3.org/2000/svg">
<path d="M388.416 216.032L238.925 26.1744C228.234 12.5843 212.114 4.89667 195.391 5.29976C178.614 5.70286 162.933 14.1679 152.844 28.2762L17.0064 218.163C-1.19668 243.587 3.68307 279.693 27.9173 298.782C37.7865 306.585 49.3553 310.328 60.8145 310.328C77.455 310.328 93.931 302.381 104.677 287.323L135.519 244.22V495.953C135.519 534.507 165.263 565.747 201.971 565.747C238.679 565.747 268.423 534.507 268.423 495.953V244.335L303.925 289.425C323.224 313.927 357.794 317.353 381.124 297.112C404.453 276.842 407.715 240.564 388.416 216.032Z" stroke="#383838" stroke-width="10" stroke-miterlimit="10" stroke-linecap="round" stroke-linejoin="round"/>
<path d="M388.416 829.169L238.925 639.311C228.234 625.721 212.114 618.033 195.391 618.436C178.614 618.84 162.933 627.305 152.844 641.413L17.0064 831.3C-1.19668 856.723 3.68307 892.829 27.9173 911.919C37.7865 919.721 49.3553 923.464 60.8145 923.464C77.455 923.464 93.931 915.518 104.677 900.459L135.519 857.357V1109.09C135.519 1147.64 165.263 1178.88 201.971 1178.88C238.679 1178.88 268.423 1147.64 268.423 1109.09V857.472L303.925 902.561C323.224 927.063 357.794 930.49 381.124 910.249C404.453 889.979 407.715 853.7 388.416 829.169Z" stroke="#383838" stroke-width="10" stroke-miterlimit="10" stroke-linecap="round" stroke-linejoin="round"/>
<path d="M387.416 1442.31L237.925 1252.45C227.234 1238.86 211.114 1231.17 194.391 1231.57C177.614 1231.98 161.933 1240.44 151.844 1254.55L16.0064 1444.44C-2.19668 1469.86 2.68307 1505.97 26.9173 1525.06C36.7865 1532.86 48.3553 1536.6 59.8145 1536.6C76.455 1536.6 92.931 1528.65 103.677 1513.6L134.519 1470.49V1722.23C134.519 1760.78 164.263 1792.02 200.971 1792.02C237.679 1792.02 267.423 1760.78 267.423 1722.23V1470.61L302.925 1515.7C322.224 1540.2 356.794 1543.63 380.124 1523.39C403.453 1503.12 406.715 1466.84 387.416 1442.31Z" stroke="#383838" stroke-width="10" stroke-miterlimit="10" stroke-linecap="round" stroke-linejoin="round"/>
</svg>
